Coordinates
version=1
nRows=19
nColumns=24
inDegrees=yes

Units are S.I. units (second, meters, Newtons, ...)
Angles are in degrees.

endheader
time	pelvis_tilt	pelvis_list	pelvis_rotation	pelvis_tx	pelvis_ty	pelvis_tz	hip_flexion_r	hip_adduction_r	hip_rotation_r	knee_angle_r	ankle_angle_r	subtalar_angle_r	mtp_angle_r	hip_flexion_l	hip_adduction_l	hip_rotation_l	knee_angle_l	ankle_angle_l	subtalar_angle_l	mtp_angle_l	lumbar_extension	lumbar_bending	lumbar_rotation
      1.19000000	     -7.96096640	     -4.95885825	     -7.34895430	     -0.56930123	      1.25531609	     -0.88671459	    -10.93460711	      9.99704621	     19.68402779	     -6.10870775	      8.39118910	      5.77515788	      8.32483472	     35.00189951	     -3.73877450	     -1.95428037	     -9.73637188	     -3.25872770	    -15.46500779	      8.04565141	     -1.17541699	      7.81385204	      6.78255471
      1.19500000	     -7.99844484	     -4.85239513	     -7.42102347	     -0.56279145	      1.25515710	     -0.88704606	    -11.07943779	      9.85673034	     19.66579688	     -6.52946515	      8.14185818	      5.82175238	      8.39604100	     34.91919588	     -3.53355788	     -1.83582909	    -10.24610510	     -3.64432610	    -15.33408068	      8.08119164	     -1.05490322	      7.64015390	      6.88817547
      1.20000000	     -8.08285393	     -4.71028899	     -7.44922372	     -0.55615902	      1.25506230	     -0.88749846	    -11.13808407	      9.68023534	     19.50874471	     -6.98979325	      7.90374458	      6.05198879	      9.07115122	     34.81900358	     -3.24682973	     -1.56221653	    -10.61185121	     -4.32019572	    -15.60533778	      8.05053612	     -0.85708867	      7.44555361	      6.93195148
      1.20500000	     -8.11253003	     -4.59494699	     -7.44916439	     -0.54957380	      1.25509094	     -0.88795137	    -11.24163015	      9.53803999	     19.39664649	     -7.46166253	      7.55117491	      6.07919931	      9.81559028	     34.67174664	     -2.97436817	     -1.28142720	    -10.99951009	     -4.91855226	    -15.76615148	      8.03125368	     -0.73281702	      7.25698275	      6.97101298
      1.21000000	     -8.17183651	     -4.46260830	     -7.46384910	     -0.54293938	      1.25519970	     -0.88831235	    -11.28340367	      9.39183744	     19.33932462	     -7.98053968	      7.09054787	      6.14478070	     10.02897918	     34.54340331	     -2.71769977	     -1.09277515	    -11.37488972	     -5.40436241	    -15.65201853	      8.04481423	     -0.56567893	      7.04282343	      7.02874984
      1.21500000	     -8.20110001	     -4.33973237	     -7.38526299	     -0.53629948	      1.25538047	     -0.88889281	    -11.32627392	      9.24860013	     19.07494718	     -8.52462204	      6.69758029	      6.33705307	     10.89365207	     34.39986877	     -2.38290781	     -0.67168593	    -11.75349761	     -6.13465340	    -16.07131862	      7.93615484	     -0.43376817	      6.84375927	      7.01492068
      1.22000000	     -8.22894901	     -4.21384103	     -7.31608670	     -0.52964804	      1.25569187	     -0.88937557	    -11.32469611	      9.11870676	     18.86043562	     -9.13798227	      6.18183621	      6.49571166	     11.67510328	     34.22962786	     -2.07427800	     -0.32525622	    -12.10030306	     -6.72410806	    -16.24820177	      7.88781708	     -0.30555793	      6.62551176	      7.00367458
      1.22500000	     -8.25581459	     -4.08372019	     -7.23607845	     -0.52298620	      1.25610341	     -0.88985758	    -11.27335393	      8.99300369	     18.62414325	     -9.82564306	      5.62084409	      6.70828466	     12.41500171	     34.03941336	     -1.76046763	      0.04951191	    -12.41855303	     -7.29243739	    -16.44057098	      7.82391522	     -0.17725560	      6.39502548	      7.00432684
      1.23000000	     -8.29078362	     -3.95507886	     -7.14792147	     -0.51627811	      1.25660475	     -0.89027435	    -11.20430928	      8.87573194	     18.41579317	    -10.50727893	      4.86122971	      6.88702314	     12.68401079	     33.88017118	     -1.46882137	      0.33025416	    -12.80039846	     -7.70616282	    -16.38389072	      7.81350004	     -0.02919451	      6.15549781	      7.00523853
      1.23500000	     -8.28393870	     -3.82871365	     -6.97446840	     -0.50958946	      1.25718628	     -0.89088455	    -11.06629458	      8.76170105	     17.89068525	    -11.36970258	      4.30154239	      7.42815167	     13.65890775	     33.65308227	     -1.09655184	      0.85016047	    -13.12295631	     -8.31265509	    -16.89502096	      7.62759174	      0.06360275	      5.91494364	      6.91387279
      1.24000000	     -8.28602614	     -3.71217355	     -6.79781787	     -0.50287135	      1.25785021	     -0.89141634	    -10.90206884	      8.66633785	     17.41190327	    -12.23568109	      3.53290950	      7.86442019	     14.39729811	     33.44564743	     -0.75961956	      1.28860034	    -13.49213882	     -8.71034155	    -17.10457377	      7.49998827	      0.17132728	      5.67194301	      6.82265432
      1.24500000	     -8.28889088	     -3.61307641	     -6.59416440	     -0.49613595	      1.25858031	     -0.89192946	    -10.69858996	      8.59728484	     16.89561626	    -13.14644870	      2.60386214	      8.32358562	     14.83725100	     33.23952250	     -0.43897943	      1.73414130	    -13.88183599	     -8.94194031	    -17.19032224	      7.41423844	      0.27831512	      5.43922590	      6.66337995
      1.25000000	     -8.27213402	     -3.47016906	     -6.38850678	     -0.48937784	      1.25940036	     -0.89246708	    -10.40464048	      8.47154076	     16.18307162	    -14.22540504	      1.79426942	      9.05626468	     15.54588420	     32.97246496	     -0.07020655	      2.17804856	    -14.20838377	     -9.27187945	    -17.49301950	      7.19173287	      0.37680217	      5.15058752	      6.60444993
      1.25500000	     -8.23857526	     -3.36829443	     -6.12973303	     -0.48264760	      1.26024306	     -0.89303011	    -10.09676151	      8.39128326	     15.40461495	    -15.32964914	      0.79098845	      9.73460716	     16.01831237	     32.71946447	      0.27530731	      2.64051332	    -14.60803119	     -9.38105118	    -17.59652750	      7.04367649	      0.44381276	      4.89630412	      6.42671679
      1.26000000	     -8.22063869	     -3.22196889	     -5.88742663	     -0.47586613	      1.26115684	     -0.89354541	     -9.68805173	      8.25427000	     14.53716123	    -16.54851922	     -0.25843734	     10.55255216	     16.48984647	     32.41709418	      0.64416358	      3.06993591	    -14.90301206	     -9.47432012	    -17.74375235	      6.83425103	      0.54300923	      4.59033151	      6.29931566
      1.26500000	     -8.21102554	     -3.09945480	     -5.61801648	     -0.46909315	      1.26209345	     -0.89406274	     -9.23937282	      8.13759648	     13.63509550	    -17.78160404	     -1.52706347	     11.28871598	     16.80208711	     32.12225907	      0.99001731	      3.50512577	    -15.20609284	     -9.44436260	    -17.73891503	      6.70906946	      0.64562584	      4.30764555	      6.08863143
      1.27000000	     -8.18467185	     -2.93994229	     -5.33259431	     -0.46234015	      1.26302877	     -0.89460720	     -8.70587243	      7.95521992	     12.53846376	    -19.16145873	     -2.76943360	     12.19065070	     17.09060622	     31.78962173	      1.37911818	      3.92243932	    -15.47744408	     -9.38211979	    -17.77492906	      6.53705971	      0.73201315	      3.97800928	      5.90065611
      1.27500000	     -8.14838962	     -2.75270599	     -5.02891028	     -0.45561683	      1.26393692	     -0.89517782	     -8.10971715	      7.71340012	     11.30797871	    -20.63645926	     -4.01676060	     13.13585722	     17.29928357	     31.44179314	      1.80449592	      4.31503853	    -15.74567730	     -9.28005901	    -17.89360707	      6.28923066	      0.80571910	      3.61276160	      5.71385516
      1.28000000	     -8.13316479	     -2.55009476	     -4.71664736	     -0.44887975	      1.26485461	     -0.89575633	     -7.46670919	      7.43042805	     10.06478444	    -22.10912549	     -5.45670153	     13.98235211	     17.39480354	     31.06230573	      2.24003721	      4.71422881	    -15.91851631	     -9.14941186	    -17.94488360	      6.05269470	      0.90507265	      3.23717630	      5.49091892
